# xmcd CD database file
#
# Track frame offsets:
#	150
#	23777
#	48437
#	71913
#	89825
#	112908
#	136533
#	166508
#	190776
#	213306
#	236575
#	259603
#	281193
#
# Disc length: 4071 seconds
#
# Revision: 0
# Processed by: cddbd v1.4PL0 Copyright (c) Steve Scherf et al.
# Submitted via: CDex 1.50
#
DISCID=b20fe50d
DTITLE=Varios - Salsa de Todito
DYEAR=1900
DGENRE=Salsa
TTITLE0=Si no la tengo
TTITLE1=Si me ves llorar
TTITLE2=Ni Siquiera
TTITLE3=El Encuentro
TTITLE4=El Jardin
TTITLE5=Vuelve a mi
TTITLE6=Mala Suerte
TTITLE7=Vuelvo a sentir
TTITLE8=Como Combatir
TTITLE9=El Tiempo se va
TTITLE10=Mi sangre
TTITLE11=Pidele perdon
TTITLE12=Dame tu querer
EXTD=
EXTT0=
EXTT1=
EXTT2=
EXTT3=
EXTT4=
EXTT5=
EXTT6=
EXTT7=
EXTT8=
EXTT9=
EXTT10=
EXTT11=
EXTT12=
PLAYORDER=
